<?xml version="1.0" encoding="utf-8"?>
<svg xmlns="http://www.w3.org/2000/svg" viewBox="0 0 160 160" role="img" aria-labelledby="title desc">
  <title id="title">ChatBot badge</title>
  <desc id="desc">Circular gradient badge with a white chat bubble</desc>

  <defs>
    <!-- Primary gradient for circle (matches your original) -->
    <linearGradient id="mainGradient" x1="0%" y1="0%" x2="100%" y2="100%">
      <stop offset="0%" stop-color="#10a37f"/>
      <stop offset="100%" stop-color="#0d9488"/>
    </linearGradient>

    <!-- Inner glow for bubble (matches your original) -->
    <radialGradient id="bubbleGlow" cx="30%" cy="40%" r="70%">
      <stop offset="0%" stop-color="#ffffff" stop-opacity="0.18"/>
      <stop offset="1" stop-color="#ffffff" stop-opacity="0"/>
    </radialGradient>

    <!-- Soft shadow (keeps the badge depth like original) -->
    <filter id="softShadow" x="-50%" y="-50%" width="200%" height="200%">
      <feDropShadow dx="0" dy="6" stdDeviation="8" flood-color="#0b6b58" flood-opacity="0.16"/>
    </filter>
  </defs>

  <!-- Keep same layout as your original: outer translate(20,20) then inner bubble group -->
  <g transform="translate(20,20)">
    <!-- circular badge (same center & radius as original) -->
    <circle cx="80" cy="80" r="60" fill="url(#mainGradient)" filter="url(#softShadow)"/>
    <circle cx="80" cy="80" r="60" fill="url(#bubbleGlow)"/>

    <!-- chat bubble and internal lines (use the same path & rects as your original) -->
    <g transform="translate(54,56)">
      <path d="M4 0 h52 a12 12 0 0 1 12 12 v24 a12 12 0 0 1 -12 12 h-28 l-10 8 v-8 H4 a12 12 0 0 1 -12 -12 V12 A12 12 0 0 1 4 0 z"
            fill="#ffffff" opacity="0.98"/>
      <rect x="12" y="12" width="28" height="3" rx="1" fill="#e6f7f0"/>
      <rect x="12" y="20" width="36" height="3" rx="1" fill="#e6f7f0"/>
      <rect x="12" y="28" width="20" height="3" rx="1" fill="#e6f7f0"/>
      <polygon points="66,-6 68,-2 72,-1 68,1 69,6 66,3 63,6 64,1 60,-1 64,-2"
               fill="#fff9f3" stroke="#ffd86b" stroke-width="0.4" opacity="0.98"/>
    </g>
  </g>
</svg>
